<svg width="308" height="53" viewBox="0 0 308 53" fill="none" xmlns="http://www.w3.org/2000/svg">
<path d="M19.3516 41.6562C26.8164 41.6562 32.6953 38.293 35.1562 32.8242C35.5664 31.8672 35.7852 30.9922 35.7852 30.0625C35.7852 27.875 34.2539 26.3984 31.9297 26.3984C30.1797 26.3984 29.1406 27.1367 28.293 28.9961C26.5156 32.9609 23.3984 34.8477 19.2422 34.8477C12.9258 34.8477 8.96094 29.6523 8.96094 21.2305C8.96094 12.918 12.9805 7.69531 19.2148 7.69531C23.1523 7.69531 26.3789 9.71875 28.1836 13.7383C29.0859 15.6523 30.2617 16.4727 32.1211 16.4727C34.3086 16.4727 35.7578 15.0781 35.7578 12.918C35.7578 11.9336 35.4844 10.8672 34.9375 9.82812C32.2305 4.14062 26.5156 0.859375 19.1328 0.859375C7.78516 0.859375 0.539062 8.54297 0.539062 21.2578C0.539062 34 7.64844 41.6562 19.3516 41.6562ZM49.5117 41.4648C53.1758 41.4648 56.8398 39.6328 58.4805 36.5156H58.6445V38.0195C58.8086 40.3711 60.3125 41.5742 62.4727 41.5742C64.7422 41.5742 66.3555 40.207 66.3555 37.5547V20.8477C66.3555 14.9414 61.4609 11.0586 53.9414 11.0586C47.8711 11.0586 43.168 13.2188 41.8008 16.7188C41.5273 17.3203 41.3906 17.8945 41.3906 18.5234C41.3906 20.3281 42.7852 21.5859 44.7266 21.5859C46.0117 21.5859 47.0234 21.0938 47.8984 20.1094C49.6758 17.8125 51.1523 17.0195 53.5859 17.0195C56.5938 17.0195 58.5078 18.6055 58.5078 21.3398V23.2812L51.125 23.7188C43.7969 24.1562 39.6953 27.2461 39.6953 32.5781C39.6953 37.8555 43.9336 41.4648 49.5117 41.4648ZM52.1367 35.6953C49.457 35.6953 47.6523 34.3281 47.6523 32.1406C47.6523 30.0625 49.3477 28.7227 52.3281 28.5039L58.5078 28.1211V30.2539C58.5078 33.4258 55.6367 35.6953 52.1367 35.6953ZM75.5156 41.5742C77.8672 41.5742 79.5078 40.125 79.5078 37.418V23.3086C79.5078 20.0273 81.5586 17.7305 84.5938 17.7305C87.5469 17.7305 89.3242 19.5898 89.3242 22.7344V37.418C89.3242 40.125 90.8008 41.5742 93.1523 41.5742C95.5312 41.5742 97.0078 40.125 97.0078 37.418V23.1992C97.0078 19.9453 99.0039 17.7305 102.039 17.7305C105.129 17.7305 106.824 19.5898 106.824 22.9805V37.418C106.824 40.125 108.438 41.5742 110.789 41.5742C113.168 41.5742 114.809 40.125 114.809 37.418V20.9844C114.809 15.0781 110.953 11.1406 105.211 11.1406C100.918 11.1406 97.418 13.4648 96.1055 17.1562H95.9414C94.957 13.3281 92.0039 11.1406 87.7656 11.1406C83.7734 11.1406 80.6289 13.4648 79.3984 16.9922H79.2344V15.1602C79.2344 12.4805 77.6484 11.0859 75.3789 11.0859C73.1094 11.0859 71.5234 12.4805 71.5234 15.1602V37.418C71.5234 40.125 73.1367 41.5742 75.5156 41.5742ZM128.535 41.4648C132.199 41.4648 135.863 39.6328 137.504 36.5156H137.668V38.0195C137.832 40.3711 139.336 41.5742 141.496 41.5742C143.766 41.5742 145.379 40.207 145.379 37.5547V20.8477C145.379 14.9414 140.484 11.0586 132.965 11.0586C126.895 11.0586 122.191 13.2188 120.824 16.7188C120.551 17.3203 120.414 17.8945 120.414 18.5234C120.414 20.3281 121.809 21.5859 123.75 21.5859C125.035 21.5859 126.047 21.0938 126.922 20.1094C128.699 17.8125 130.176 17.0195 132.609 17.0195C135.617 17.0195 137.531 18.6055 137.531 21.3398V23.2812L130.148 23.7188C122.82 24.1562 118.719 27.2461 118.719 32.5781C118.719 37.8555 122.957 41.4648 128.535 41.4648ZM131.16 35.6953C128.48 35.6953 126.676 34.3281 126.676 32.1406C126.676 30.0625 128.371 28.7227 131.352 28.5039L137.531 28.1211V30.2539C137.531 33.4258 134.66 35.6953 131.16 35.6953ZM163.645 52.0195C173.078 52.0742 178.602 47.4805 178.602 39.8516V15.1328C178.602 12.4258 176.934 11.0859 174.637 11.0859C172.34 11.0859 170.617 12.4258 170.617 15.1328V16.7461H170.453C168.922 13.4375 165.723 11.2227 161.512 11.2227C153.965 11.2227 149.48 16.6641 149.48 25.8516C149.48 34.793 154.074 40.3711 161.375 40.3711C165.613 40.3711 169.031 38.2656 170.398 35.1211H170.562V39.7969C170.562 43.4609 167.992 45.8672 163.617 45.8398C160.965 45.8125 158.887 44.6914 156.727 42.6406C155.824 41.8203 155.004 41.4922 153.965 41.4922C151.969 41.4922 150.711 42.75 150.711 44.418C150.711 45.1562 150.875 45.8945 151.312 46.6328C153.199 49.7227 157.656 51.9922 163.645 52.0195ZM164.082 34.4375C160.117 34.4375 157.656 31.293 157.656 25.9336C157.656 20.6289 160.145 17.293 164.082 17.293C168.074 17.293 170.645 20.6836 170.645 25.9609C170.645 31.2656 168.074 34.4375 164.082 34.4375Z" fill="#F1C40F"/>
<path d="M188.609 41.5742C191.207 41.5742 192.738 39.9883 192.738 37.2812V26.5625H199.766L206.328 38.457C207.668 40.8633 208.57 41.5742 210.539 41.5742C212.945 41.5742 214.695 39.9883 214.695 37.8008C214.695 36.8438 214.504 36.1328 213.82 34.957L208.133 25.1133C212.48 23.2539 214.914 19.043 214.914 14.1211C214.914 6.32812 209.719 1.54297 200.641 1.54297H188.609C186.012 1.54297 184.48 3.12891 184.48 5.83594V37.2812C184.48 39.9883 186.039 41.5742 188.609 41.5742ZM192.738 20.5742V7.99609H199.766C203.867 7.99609 206.438 10.457 206.438 14.2852C206.438 18.1953 204.004 20.5742 199.848 20.5742H192.738ZM232.852 41.6289C241.711 41.6289 247.371 35.9688 247.371 26.3164C247.371 16.8008 241.629 11.0586 232.852 11.0586C224.074 11.0586 218.332 16.8281 218.332 26.3164C218.332 35.9414 223.992 41.6289 232.852 41.6289ZM232.852 35.5312C228.914 35.5312 226.426 32.2227 226.426 26.3438C226.426 20.5195 228.969 17.1562 232.852 17.1562C236.734 17.1562 239.25 20.5195 239.25 26.3438C239.25 32.2227 236.762 35.5312 232.852 35.5312ZM264.953 41.6289C273.812 41.6289 279.473 35.9688 279.473 26.3164C279.473 16.8008 273.73 11.0586 264.953 11.0586C256.176 11.0586 250.434 16.8281 250.434 26.3164C250.434 35.9414 256.094 41.6289 264.953 41.6289ZM264.953 35.5312C261.016 35.5312 258.527 32.2227 258.527 26.3438C258.527 20.5195 261.07 17.1562 264.953 17.1562C268.836 17.1562 271.352 20.5195 271.352 26.3438C271.352 32.2227 268.863 35.5312 264.953 35.5312ZM291.668 41.5195C294.266 41.5195 295.797 39.9336 295.797 37.2266V8.37891H303.973C306.188 8.37891 307.691 7.09375 307.691 4.96094C307.691 2.82812 306.215 1.54297 303.973 1.54297H279.391C277.121 1.54297 275.645 2.82812 275.645 4.96094C275.645 7.09375 277.148 8.37891 279.391 8.37891H287.539V37.2266C287.539 39.9336 289.07 41.5195 291.668 41.5195Z" fill="#19191A"/>
</svg>
